<?xml version="1.0" encoding="UTF-8" standalone="no"?>
<!DOCTYPE svg PUBLIC "-//W3C//DTD SVG 1.1//EN" "http://www.w3.org/Graphics/SVG/1.1/DTD/svg11.dtd">
<svg width="100%" height="100%" viewBox="0 0 347 364" version="1.1" xmlns="http://www.w3.org/2000/svg" xmlns:xlink="http://www.w3.org/1999/xlink" xml:space="preserve" xmlns:serif="http://www.serif.com/" style="fill-rule:evenodd;clip-rule:evenodd;stroke-linejoin:round;stroke-miterlimit:2;">
    <g transform="matrix(1,0,0,1,-133.498,-217.569)">
        <g>
            <g>
                <path d="M306.67,225.937C402.246,225.937 479.842,303.533 479.842,399.109C479.842,494.685 402.246,572.281 306.67,572.281C211.094,572.281 133.498,494.685 133.498,399.109C133.498,303.533 211.094,225.937 306.67,225.937ZM187.42,327.239L399.864,502.519C375.179,524.784 342.495,538.344 306.67,538.344C229.824,538.344 167.435,475.955 167.435,399.109C167.435,372.82 174.736,348.223 187.42,327.239ZM425.92,470.979L213.475,295.698C238.161,273.434 270.844,259.874 306.67,259.874C383.516,259.874 445.905,322.263 445.905,399.109C445.905,425.398 438.603,449.995 425.92,470.979Z" style="fill:white;"/>
            </g>
            <path d="M185.672,534.401C195.491,543.19 206.27,550.925 217.83,557.432L213.375,580.649L176.037,580.649L185.672,534.401ZM358.143,573.236L359.693,580.649L322.356,580.649L322.229,579.99C334.597,578.938 346.613,576.644 358.143,573.236ZM198.512,472.766L220.827,365.651L249.925,389.658L239.277,445.242L296.316,445.242L292.378,424.684L334.318,459.288L347.722,523.396C336.603,527.072 324.822,529.297 312.607,529.843L306.374,497.36L229.357,497.36L228.128,503.765C216.644,495.129 206.625,484.649 198.512,472.766ZM294.491,268.803L315.435,368.973L275.373,335.92L267.796,296.369L262.288,325.124L234.113,301.877L236.924,288.384C253.882,277.671 273.469,270.746 294.491,268.803ZM284.07,218.965C272.25,220.436 260.78,223.045 249.779,226.677L251.677,217.569L283.778,217.569L284.07,218.965Z" style="fill:white;fill-rule:nonzero;"/>
            <path d="M419.626,541.193L419.626,580.649L384.079,580.649L384.079,563.34C396.809,557.323 408.729,549.869 419.626,541.193ZM384.079,500.344L386.776,502.569C385.885,503.259 384.986,503.939 384.079,504.605L384.079,500.344ZM384.079,293.61C398.44,304.171 410.57,317.59 419.626,333.024L419.626,454.938L384.079,425.61L384.079,293.61ZM419.626,257.025C408.725,248.345 396.806,240.892 384.079,234.878L384.079,217.569L419.626,217.569L419.626,257.025Z" style="fill:white;fill-rule:nonzero;"/>
        </g>
    </g>
</svg>
